<svg width="512" height="512" viewBox="0 0 512 512" xmlns="http://www.w3.org/2000/svg" role="img" aria-label="وصلة">
  <defs>
    <linearGradient id="bg" x1="68" y1="58" x2="446" y2="456" gradientUnits="userSpaceOnUse">
      <stop stop-color="#042f2e"/>
      <stop offset="0.5" stop-color="#0d9488"/>
      <stop offset="1" stop-color="#fbbf24"/>
    </linearGradient>
    <linearGradient id="word" x1="116" y1="178" x2="420" y2="316" gradientUnits="userSpaceOnUse">
      <stop stop-color="#ffffff"/>
      <stop offset="0.62" stop-color="#ecfdf5"/>
      <stop offset="1" stop-color="#fff7d6"/>
    </linearGradient>
  </defs>
  <rect width="512" height="512" rx="116" fill="#f8fafa"/>
  <rect x="42" y="42" width="428" height="428" rx="98" fill="url(#bg)"/>
  <circle cx="398" cy="118" r="42" fill="#fbbf24" opacity="0.22"/>
  <circle cx="116" cy="390" r="58" fill="#99f6e4" opacity="0.18"/>
  <path d="M99.51 406.09L99.51 406.09Q89.99 406.09 82.43 402.78Q74.86 399.46 70.53 392.75Q66.19 386.03 66.19 376.00L66.19 376.00Q66.19 367.84 70.70 357.98Q75.20 348.12 85.40 337.92L85.40 337.92L78.77 332.65L94.75 313.10Q114.13 327.89 125.10 341.66Q136.06 355.43 136.06 371.75L136.06 371.75Q136.06 377.02 134.37 383.06Q132.66 389.09 128.58 394.28Q124.50 399.46 117.45 402.78Q110.39 406.09 99.51 406.09ZM101.38 382.63L101.38 382.63Q107.67 382.63 110.65 378.98Q113.63 375.32 113.63 370.73L113.63 370.73Q113.63 366.82 111.24 361.89Q108.86 356.96 100.88 350.16L100.88 350.16Q94.58 356.11 91.95 361.64Q89.31 367.16 89.31 371.58L89.31 371.58Q89.31 377.02 92.88 379.83Q96.45 382.63 101.38 382.63ZM85.91 300.18L85.91 300.18Q80.98 300.18 77.50 296.70Q74.01 293.21 74.01 288.45L74.01 288.45Q74.01 283.52 77.50 279.95Q80.98 276.38 85.91 276.38L85.91 276.38Q90.67 276.38 94.07 279.95Q97.47 283.52 97.47 288.45L97.47 288.45Q97.47 293.21 94.07 296.70Q90.67 300.18 85.91 300.18ZM115.32 300.35L115.32 300.35Q110.39 300.35 106.91 296.87Q103.42 293.38 103.42 288.62L103.42 288.62Q103.42 283.69 106.91 280.12Q110.39 276.55 115.32 276.55L115.32 276.55Q120.08 276.55 123.48 280.12Q126.88 283.69 126.88 288.62L126.88 288.62Q126.88 293.38 123.48 296.87Q120.08 300.35 115.32 300.35ZM141.68 406.43L141.68 406.43L143.38 382.63Q151.37 382.63 154.68 381.02Q158.00 379.40 158.68 374.90Q159.36 370.39 159.02 361.72L159.02 361.72L156.30 281.14L180.44 281.14L183.33 361.55Q183.67 370.05 185.37 374.64Q187.06 379.23 191.06 380.93Q195.06 382.63 201.86 382.63L201.86 382.63Q208.31 382.63 211.04 385.95Q213.75 389.26 213.75 394.19L213.75 394.19Q213.75 399.46 210.19 402.95Q206.62 406.43 200.16 406.43L200.16 406.43Q191.31 406.43 184.01 404.05Q176.70 401.67 172.96 394.36L172.96 394.36Q168.20 401.50 160.72 403.97Q153.24 406.43 141.68 406.43ZM288.22 408.64L288.22 408.64Q269.18 408.64 257.79 406.60Q246.40 404.56 240.19 400.99Q233.99 397.42 230.76 392.66L230.76 392.66Q224.47 401.67 216.48 404.05Q208.49 406.43 200.16 406.43L200.16 406.43L201.86 382.63Q208.83 382.63 212.14 379.49Q215.46 376.34 217.58 369.03Q219.71 361.72 222.94 349.14L222.94 349.14L244.53 354.41Q240.96 368.18 240.96 372.26L240.96 372.26Q240.96 376.17 243.08 378.72Q245.21 381.27 252.01 382.80L252.01 382.80Q258.64 372.60 266.80 363.34Q274.96 354.07 284.14 346.93Q293.32 339.79 303.18 335.71Q313.04 331.63 323.24 331.63L323.24 331.63Q340.41 331.63 349.76 341.32Q359.11 351.01 359.11 366.31L359.11 366.31Q359.11 378.72 352.05 388.24Q345.00 397.76 329.44 403.20Q313.89 408.64 288.22 408.64ZM320.86 355.43L320.86 355.43Q313.38 355.43 305.81 359.68Q298.25 363.93 291.19 370.73Q284.14 377.53 278.53 384.84L278.53 384.84Q281.08 384.84 283.97 384.84L283.97 384.84Q303.69 384.84 314.82 382.97Q325.96 381.10 330.63 377.28Q335.31 373.45 335.31 368.01L335.31 368.01Q335.31 363.25 331.91 359.34Q328.51 355.43 320.86 355.43ZM375.43 444.68L375.43 444.68L370.50 420.88Q386.81 418.84 397.78 415.53Q408.75 412.21 414.01 404.39L414.01 404.39Q411.63 405.24 408.83 405.75Q406.03 406.26 402.80 406.26L402.80 406.26Q394.81 406.26 388.18 403.63Q381.55 400.99 377.63 395.38Q373.73 389.77 373.73 380.76L373.73 380.76Q373.73 372.43 376.44 364.61Q379.17 356.79 384.01 350.59Q388.86 344.38 395.23 340.73Q401.61 337.07 408.75 337.07L408.75 337.07Q417.25 337.07 423.62 341.32Q430.00 345.57 434.25 352.46Q438.50 359.34 440.71 367.33Q442.92 375.32 442.92 382.63L442.92 382.63Q442.92 401.84 434.75 415.27Q426.60 428.70 411.47 436.10Q396.34 443.49 375.43 444.68ZM397.19 376.00L397.19 376.00Q397.19 383.14 407.90 383.14L407.90 383.14Q413.50 383.14 418.94 381.61L418.94 381.61Q418.61 377.02 417.33 372.52Q416.06 368.01 413.68 365.12Q411.30 362.23 407.73 362.23L407.73 362.23Q402.97 362.23 400.08 366.74Q397.19 371.24 397.19 376.00Z" fill="url(#word)"/>
  <path d="M108 330C158 374 232 398 310 374C346 363 380 342 406 318" fill="none" stroke="#fbbf24" stroke-width="18" stroke-linecap="round" opacity="0.82"/>
</svg>